<svg id="Layer_1" data-name="Layer 1" xmlns="http://www.w3.org/2000/svg" viewBox="0 0 300 75"><defs><style>.cls-1{fill:#231f20;}.cls-2{fill:#5f8db5;}.cls-3{fill:#719f94;}.cls-4{fill:#e9831c;}.cls-5{fill:#ef3a47;}.cls-6{fill:#866894;}</style></defs><path class="cls-1" d="M41.18,13.18,64.32,36.32a2.29,2.29,0,0,1,0,3.26L46.88,57a18.68,18.68,0,0,1-26.41,0h0a18.68,18.68,0,0,1,0-26.41h0L37.92,13.18A2.29,2.29,0,0,1,41.18,13.18Z"/><path class="cls-2" d="M33.31,35.21l-4.41-4.4a14.58,14.58,0,0,0,0,15.75l4.41-4.4a8.06,8.06,0,0,1,0-6.95Z"/><path class="cls-3" d="M40,24.78a14,14,0,0,0-5,1.07h0A15.53,15.53,0,0,0,30,29.32a14.7,14.7,0,0,0-1.14,1.49l4.41,4.4a7.7,7.7,0,0,1,6.6-4.4H40v-6Z"/><path class="cls-4" d="M49.52,28.3A13.6,13.6,0,0,0,40,24.78v6a7.53,7.53,0,0,1,5.31,1.83.69.69,0,0,0,1,0l3.24-3.24a.72.72,0,0,0,0-1Z"/><path class="cls-5" d="M40,52.58A14.51,14.51,0,0,1,35,51.38h0A15.64,15.64,0,0,1,30,47.9a12.05,12.05,0,0,1-1.14-1.34l4.41-4.4a7.22,7.22,0,0,0,1.06,1.57A8,8,0,0,0,40,46.33h0v6.25Z"/><path class="cls-6" d="M49.54,47.88,46.3,44.63a.72.72,0,0,0-1,0A7.6,7.6,0,0,1,40,46.33v6.25a13.75,13.75,0,0,0,9.52-3.64.71.71,0,0,0,.05-1Z"/><path d="M87.08,39.66a2.79,2.79,0,0,0-2.39,1.15A5.42,5.42,0,0,0,83.85,44c0,2.86,1.07,4.29,3.23,4.29a10.15,10.15,0,0,0,3.27-.67v2.28a9.06,9.06,0,0,1-3.53.66,5.4,5.4,0,0,1-4.29-1.7A7.19,7.19,0,0,1,81.05,44a7.89,7.89,0,0,1,.73-3.51,5.24,5.24,0,0,1,2.09-2.32,6.27,6.27,0,0,1,3.21-.8,8.58,8.58,0,0,1,3.76.91L90,40.51a14.81,14.81,0,0,0-1.45-.6A4.35,4.35,0,0,0,87.08,39.66Z"/><path d="M98.36,40.41a4.58,4.58,0,0,1,.91.08L99.06,43a3,3,0,0,0-.79-.09,2.86,2.86,0,0,0-2,.66,2.4,2.4,0,0,0-.71,1.84v5H92.88V40.6h2l.39,1.65h.13a3.77,3.77,0,0,1,1.24-1.33A3,3,0,0,1,98.36,40.41Z"/><path d="M108,50.42l-.36-1.25h-.14a2.88,2.88,0,0,1-1.22,1.06,4.17,4.17,0,0,1-1.8.37,3.41,3.41,0,0,1-2.61-.93A3.68,3.68,0,0,1,101,47V40.6h2.68v5.74a2.67,2.67,0,0,0,.38,1.59,1.35,1.35,0,0,0,1.2.53,1.83,1.83,0,0,0,1.63-.75,4.69,4.69,0,0,0,.5-2.49V40.6h2.68v9.82Z"/><path d="M116.87,50.6q-4.59,0-4.59-5a5.36,5.36,0,0,1,1.25-3.82,4.68,4.68,0,0,1,3.58-1.33,6.94,6.94,0,0,1,3.06.67l-.79,2.08c-.43-.17-.82-.31-1.18-.42a3.79,3.79,0,0,0-1.09-.16c-1.4,0-2.09,1-2.09,3s.69,2.88,2.09,2.88a4.71,4.71,0,0,0,1.43-.21,5,5,0,0,0,1.32-.64v2.29a4.1,4.1,0,0,1-1.32.57A7.09,7.09,0,0,1,116.87,50.6Z"/><path d="M122,38.06c0-.87.49-1.31,1.46-1.31s1.46.44,1.46,1.31a1.26,1.26,0,0,1-.37,1,1.52,1.52,0,0,1-1.09.35C122.51,39.38,122,38.94,122,38.06Zm2.8,12.36h-2.69V40.6h2.69Z"/><path d="M133.09,40.41a3.21,3.21,0,0,1,2.73,1.36,6.22,6.22,0,0,1,1,3.72,6.08,6.08,0,0,1-1,3.77A3.28,3.28,0,0,1,133,50.6a3.24,3.24,0,0,1-2.71-1.26h-.19l-.44,1.08h-2.05V36.75h2.68v3.18c0,.4,0,1-.11,1.94h.11A3.1,3.1,0,0,1,133.09,40.41Zm-.86,2.15a1.69,1.69,0,0,0-1.45.61,3.55,3.55,0,0,0-.47,2v.29a4.14,4.14,0,0,0,.47,2.26,1.67,1.67,0,0,0,1.49.69,1.48,1.48,0,0,0,1.31-.76,4.07,4.07,0,0,0,.49-2.21,3.91,3.91,0,0,0-.49-2.18A1.56,1.56,0,0,0,132.23,42.56Z"/><path d="M141.7,50.42H139V36.75h2.68Z"/><path d="M149,50.6a5.09,5.09,0,0,1-3.71-1.31,5,5,0,0,1-1.34-3.71,5.49,5.49,0,0,1,1.24-3.82,5,5,0,0,1,6.66-.16A4.5,4.5,0,0,1,153,44.88v1.3h-6.34a2.53,2.53,0,0,0,.68,1.78,2.36,2.36,0,0,0,1.77.65,7.58,7.58,0,0,0,1.68-.19,8,8,0,0,0,1.65-.59v2.08a6.34,6.34,0,0,1-1.5.52A9.74,9.74,0,0,1,149,50.6Zm-.38-8.28a1.68,1.68,0,0,0-1.33.54,2.48,2.48,0,0,0-.56,1.54h3.76a2.2,2.2,0,0,0-.52-1.54A1.74,1.74,0,0,0,148.58,42.32Z"/><path d="M162.71,50.42H160V37.58h7.37v2.23h-4.69v3.31h4.36v2.22h-4.36Z"/><path d="M175.19,40.41a4.47,4.47,0,0,1,.9.08l-.2,2.52a3,3,0,0,0-.79-.09,2.84,2.84,0,0,0-2,.66,2.37,2.37,0,0,0-.72,1.84v5H169.7V40.6h2l.4,1.65h.13a3.74,3.74,0,0,1,1.23-1.33A3.05,3.05,0,0,1,175.19,40.41Z"/><path d="M184.12,50.42l-.52-1.33h-.07a3.92,3.92,0,0,1-1.4,1.18,4.46,4.46,0,0,1-1.86.33,3,3,0,0,1-2.23-.81,3.1,3.1,0,0,1-.82-2.3,2.61,2.61,0,0,1,1.1-2.31,6.37,6.37,0,0,1,3.3-.82l1.7,0v-.43a1.34,1.34,0,0,0-1.53-1.5,7,7,0,0,0-2.76.71l-.89-1.81a8,8,0,0,1,3.76-.88,4.64,4.64,0,0,1,3,.86A3.16,3.16,0,0,1,186,43.88v6.54Zm-.8-4.55-1,0a3.26,3.26,0,0,0-1.74.42,1.33,1.33,0,0,0-.57,1.18c0,.75.43,1.13,1.3,1.13a2.07,2.07,0,0,0,1.49-.54,1.87,1.87,0,0,0,.55-1.42Z"/><path d="M197.54,50.42h-2.68V44.69a2.9,2.9,0,0,0-.35-1.6,1.26,1.26,0,0,0-1.12-.53,1.63,1.63,0,0,0-1.5.75,5,5,0,0,0-.46,2.49v4.62h-2.68V40.6h2l.37,1.26h.14a2.69,2.69,0,0,1,1.15-1.06,3.65,3.65,0,0,1,1.71-.39,3.08,3.08,0,0,1,3,1.45h.24a2.62,2.62,0,0,1,1.16-1.07,3.9,3.9,0,0,1,1.74-.38,3.42,3.42,0,0,1,2.52.86,3.73,3.73,0,0,1,.86,2.75v6.4H201V44.69a3,3,0,0,0-.35-1.6,1.28,1.28,0,0,0-1.13-.53,1.68,1.68,0,0,0-1.47.7,4,4,0,0,0-.49,2.23Z"/><path d="M210.87,50.6a5.09,5.09,0,0,1-3.71-1.31,5,5,0,0,1-1.34-3.71,5.49,5.49,0,0,1,1.24-3.82,5,5,0,0,1,6.66-.16,4.5,4.5,0,0,1,1.16,3.28v1.3h-6.34a2.53,2.53,0,0,0,.68,1.78,2.36,2.36,0,0,0,1.77.65,7.58,7.58,0,0,0,1.68-.19,8,8,0,0,0,1.65-.59v2.08a6.34,6.34,0,0,1-1.5.52A9.74,9.74,0,0,1,210.87,50.6Zm-.38-8.28a1.68,1.68,0,0,0-1.33.54,2.48,2.48,0,0,0-.56,1.54h3.76a2.2,2.2,0,0,0-.52-1.54A1.74,1.74,0,0,0,210.49,42.32Z"/><path d="M225.13,50.42,224.38,47l-1-4.34h-.06l-1.8,7.77h-2.88l-2.79-9.82h2.67L219.63,45c.18.78.37,1.85.56,3.22h.05a15.8,15.8,0,0,1,.31-2.11l.14-.75,1.21-4.71h2.95L226,45.31c0,.13.06.32.11.57s.1.52.15.8.09.57.13.84.06.49.06.65h.05c.06-.42.15-1,.29-1.73s.23-1.23.29-1.49l1.17-4.35h2.63l-2.83,9.82Z"/><path d="M241.39,45.49a5.33,5.33,0,0,1-1.26,3.76,4.61,4.61,0,0,1-3.53,1.35,5,5,0,0,1-2.49-.62,4.09,4.09,0,0,1-1.66-1.78,5.92,5.92,0,0,1-.58-2.71,5.28,5.28,0,0,1,1.25-3.74,4.64,4.64,0,0,1,3.54-1.34,5,5,0,0,1,2.49.62,4.06,4.06,0,0,1,1.66,1.77A5.83,5.83,0,0,1,241.39,45.49Zm-6.79,0a4.12,4.12,0,0,0,.48,2.21,1.71,1.71,0,0,0,1.56.75,1.68,1.68,0,0,0,1.54-.75,4.2,4.2,0,0,0,.47-2.21,4.08,4.08,0,0,0-.47-2.18,2,2,0,0,0-3.11,0A4.12,4.12,0,0,0,234.6,45.49Z"/><path d="M249.09,40.41a4.51,4.51,0,0,1,.91.08L249.8,43a3,3,0,0,0-.8-.09,2.81,2.81,0,0,0-2,.66,2.37,2.37,0,0,0-.72,1.84v5h-2.68V40.6h2l.39,1.65h.14a3.65,3.65,0,0,1,1.23-1.33A3,3,0,0,1,249.09,40.41Z"/><path d="M254.36,45.08l1.17-1.49,2.75-3h3l-3.9,4.26,4.14,5.56h-3.1l-2.83-4-1.15.93v3.05h-2.68V36.75h2.68v6.1l-.14,2.23Z"/><path d="M87.61,24.21a2.39,2.39,0,0,1-.89,2,4,4,0,0,1-2.54.7h-1v3.37h-1V21.72H84.4Q87.61,21.72,87.61,24.21Zm-4.44,1.85h.9A3.32,3.32,0,0,0,86,25.63a1.58,1.58,0,0,0,.59-1.37A1.49,1.49,0,0,0,86,23a3,3,0,0,0-1.73-.41H83.17Z"/><path d="M93.21,30.28l-.2-.91H93a2.78,2.78,0,0,1-.95.82,3,3,0,0,1-1.2.21,2.13,2.13,0,0,1-1.49-.49,1.81,1.81,0,0,1-.54-1.4c0-1.3,1-2,3.11-2l1.09,0V26a1.61,1.61,0,0,0-.33-1.12,1.34,1.34,0,0,0-1-.36,4.25,4.25,0,0,0-1.82.49l-.29-.74a4.18,4.18,0,0,1,1-.41,4.32,4.32,0,0,1,1.13-.14,2.43,2.43,0,0,1,1.7.51,2.11,2.11,0,0,1,.56,1.63v4.38ZM91,29.6a2,2,0,0,0,1.42-.5A1.83,1.83,0,0,0,93,27.71v-.59l-1,.05a3.36,3.36,0,0,0-1.67.36,1.09,1.09,0,0,0-.52,1,1,1,0,0,0,.32.8A1.31,1.31,0,0,0,91,29.6Z"/><path d="M98.86,23.74a4.49,4.49,0,0,1,.77.07l-.14.91a3.2,3.2,0,0,0-.7-.09,1.71,1.71,0,0,0-1.33.63,2.31,2.31,0,0,0-.56,1.58v3.44h-1V23.86h.8l.11,1.19h0a2.93,2.93,0,0,1,.86-1A2,2,0,0,1,98.86,23.74Z"/><path d="M102.9,29.6a4,4,0,0,0,.5,0,3.43,3.43,0,0,0,.38-.08v.74a1.34,1.34,0,0,1-.46.13,4,4,0,0,1-.56,0c-1.24,0-1.86-.65-1.86-2V24.62H100v-.47l.92-.41.41-1.37h.56v1.49h1.86v.76h-1.86V28.4a1.28,1.28,0,0,0,.28.89A1,1,0,0,0,102.9,29.6Z"/><path d="M113.72,27.07a3.54,3.54,0,0,1-.79,2.45,2.75,2.75,0,0,1-2.18.88,2.86,2.86,0,0,1-1.53-.4,2.65,2.65,0,0,1-1-1.16,4.11,4.11,0,0,1-.37-1.77,3.55,3.55,0,0,1,.79-2.45,2.79,2.79,0,0,1,2.18-.88,2.71,2.71,0,0,1,2.14.9A3.54,3.54,0,0,1,113.72,27.07Zm-4.89,0a3.09,3.09,0,0,0,.49,1.87,1.94,1.94,0,0,0,2.9,0,3,3,0,0,0,.5-1.87,3,3,0,0,0-.5-1.86,1.73,1.73,0,0,0-1.46-.64,1.7,1.7,0,0,0-1.44.63A3,3,0,0,0,108.83,27.07Z"/><path d="M118.32,24.62h-1.63v5.66h-1V24.62h-1.15v-.44l1.15-.35v-.36q0-2.37,2.07-2.37a4.21,4.21,0,0,1,1.19.21l-.25.78a3,3,0,0,0-1-.19,1,1,0,0,0-.82.37,2.1,2.1,0,0,0-.26,1.18v.41h1.63Z"/><path d="M124.69,29.6a4,4,0,0,0,.5,0l.38-.08v.74a1.41,1.41,0,0,1-.47.13,3.86,3.86,0,0,1-.55,0c-1.25,0-1.87-.65-1.87-2V24.62h-.92v-.47l.92-.41.41-1.37h.57v1.49h1.86v.76h-1.86V28.4a1.33,1.33,0,0,0,.27.89A1,1,0,0,0,124.69,29.6Z"/><path d="M131.24,30.28V26.13a1.7,1.7,0,0,0-.35-1.17,1.45,1.45,0,0,0-1.12-.39,1.82,1.82,0,0,0-1.48.55,2.81,2.81,0,0,0-.47,1.81v3.35h-1V21.17h1v2.76a6.3,6.3,0,0,1,0,.82h0a2.08,2.08,0,0,1,.82-.73,2.63,2.63,0,0,1,1.21-.26,2.44,2.44,0,0,1,1.77.56,2.35,2.35,0,0,1,.59,1.77v4.19Z"/><path d="M136.93,30.4a3,3,0,0,1-2.25-.87,3.34,3.34,0,0,1-.82-2.41,3.71,3.71,0,0,1,.76-2.46,2.55,2.55,0,0,1,2.06-.92,2.43,2.43,0,0,1,1.91.8,3.09,3.09,0,0,1,.7,2.09v.62h-4.42a2.49,2.49,0,0,0,.57,1.71,1.94,1.94,0,0,0,1.52.59,5.13,5.13,0,0,0,2-.43V30a4.77,4.77,0,0,1-1,.32A5.13,5.13,0,0,1,136.93,30.4Zm-.27-5.84a1.61,1.61,0,0,0-1.23.5,2.28,2.28,0,0,0-.54,1.4h3.36a2.14,2.14,0,0,0-.41-1.41A1.46,1.46,0,0,0,136.66,24.56Z"/></svg>